# xmcd
#
# Track frame offsets: 
#        150
#        15501
#        29057
#        42646
#        46404
#        60759
#        76379
#        94590
#        109120
#        112997
#        126630
#        139111
#        152412
#        162817
#        176086
#        190359
#        202632
#        208621
#        214294
#        220239
#        225146
#        239227
#        253149
#        267499
#        280779
#
# Disc length: 3910 seconds
#
# Revision: 0
# Processed by: cddbd v1.5.2PL0 Copyright (c) Steve Scherf et al.
# Submitted via: ExactAudioCopy v1.0b3
#
DISCID=680f4419
DTITLE=Lead Belly - American Folk and Blues Anthology [Disc 3]
DYEAR=2016
DGENRE=Blues
TTITLE0=The Bourgeois Blues
TTITLE1=New York City
TTITLE2=Stewball
TTITLE3=Swing Low, Sweet Chariot
TTITLE4=T.B. Blues
TTITLE5=Death Letter Blues
TTITLE6=Titanic
TTITLE7=Worried Blues
TTITLE8=Leadbelly's Dance
TTITLE9=National Defense Blues
TTITLE10=The Gallis Pole
TTITLE11=Packing Trunk Blues
TTITLE12=Blue Tail Fly
TTITLE13=Tell Me Baby
TTITLE14=Black Snake Moan
TTITLE15=The Christmas Song
TTITLE16=Big Fat Woman
TTITLE17=Green Corn
TTITLE18=We Shall Walk Through The Valley
TTITLE19=Sukey Jump
TTITLE20=Whoa Back, Buck
TTITLE21=Four Day Worry Blues
TTITLE22=It's Tight Like That
TTITLE23=The Western Plains
TTITLE24=Goodnight Irene
EXTD=
EXTT0=
EXTT1=
EXTT2=
EXTT3=
EXTT4=
EXTT5=
EXTT6=
EXTT7=
EXTT8=
EXTT9=
EXTT10=
EXTT11=
EXTT12=
EXTT13=
EXTT14=
EXTT15=
EXTT16=
EXTT17=
EXTT18=
EXTT19=
EXTT20=
EXTT21=
EXTT22=
EXTT23=
EXTT24=
PLAYORDER=
